<svg id="\u0421\u043B\u043E\u0439_1" width="233" height="68" xmlns="http://www.w3.org/2000/svg" xmlns:xlink="http://www.w3.org/1999/xlink" x="0px" y="0px" viewBox="0 0 233 68" xml:space="preserve" class="MenuItemsLeft_MenuItemsLeft__logo__SGf8X"><g><g><path class="st0" d="M70.9,21.1h-2.1v-7.7h1.9l2.4,3h0l2.4-3h1.9v7.7h-2.1v-4.5h0l-2.1,2.7l-2.1-2.7h0V21.1z"></path><path class="st0" d="M81.1,21.1H79v-7.7h2.1v2.8h2.8v-2.8H86v7.7h-2.1v-2.9h-2.8V21.1z"></path><path class="st0" d="M89.3,20.8c-0.7-0.4-1.2-0.9-1.5-1.5c-0.4-0.6-0.6-1.3-0.6-2.1c0-0.8,0.2-1.4,0.6-2.1 c0.4-0.6,0.9-1.1,1.5-1.5c0.7-0.4,1.4-0.5,2.2-0.5c0.8,0,1.5,0.2,2.2,0.5c0.7,0.4,1.2,0.9,1.5,1.5c0.4,0.6,0.6,1.3,0.6,2.1 c0,0.8-0.2,1.4-0.6,2.1c-0.4,0.6-0.9,1.1-1.5,1.5c-0.7,0.4-1.4,0.5-2.2,0.5C90.7,21.3,90,21.2,89.3,20.8z M92.6,19.1 c0.3-0.2,0.6-0.5,0.8-0.8c0.2-0.3,0.3-0.7,0.3-1.1c0-0.4-0.1-0.8-0.3-1.1c-0.2-0.3-0.5-0.6-0.8-0.8s-0.7-0.3-1.1-0.3 c-0.4,0-0.8,0.1-1.1,0.3s-0.6,0.5-0.8,0.8c-0.2,0.3-0.3,0.7-0.3,1.1c0,0.4,0.1,0.8,0.3,1.1c0.2,0.3,0.5,0.6,0.8,0.8 c0.3,0.2,0.7,0.3,1.1,0.3C91.9,19.4,92.3,19.3,92.6,19.1z"></path><path class="st0" d="M99.2,21.1h-2.1v-7.7h5.4v2h-3.3V21.1z"></path><path class="st0" d="M104.7,20.8c-0.7-0.4-1.2-0.9-1.5-1.5c-0.4-0.6-0.6-1.3-0.6-2.1c0-0.8,0.2-1.4,0.6-2.1 c0.4-0.6,0.9-1.1,1.5-1.5c0.7-0.4,1.4-0.5,2.2-0.5s1.5,0.2,2.2,0.5c0.7,0.4,1.2,0.9,1.5,1.5c0.4,0.6,0.6,1.3,0.6,2.1 c0,0.8-0.2,1.4-0.6,2.1c-0.4,0.6-0.9,1.1-1.5,1.5c-0.7,0.4-1.4,0.5-2.2,0.5S105.4,21.2,104.7,20.8z M108,19.1 c0.3-0.2,0.6-0.5,0.8-0.8c0.2-0.3,0.3-0.7,0.3-1.1c0-0.4-0.1-0.8-0.3-1.1c-0.2-0.3-0.5-0.6-0.8-0.8c-0.3-0.2-0.7-0.3-1.1-0.3 s-0.8,0.1-1.1,0.3c-0.3,0.2-0.6,0.5-0.8,0.8c-0.2,0.3-0.3,0.7-0.3,1.1c0,0.4,0.1,0.8,0.3,1.1c0.2,0.3,0.5,0.6,0.8,0.8 c0.3,0.2,0.7,0.3,1.1,0.3S107.7,19.3,108,19.1z"></path><path class="st0" d="M115.4,20.3c-0.7,0-1.3-0.2-1.9-0.5c-0.5-0.3-1-0.7-1.2-1.2c-0.3-0.5-0.4-1-0.4-1.6c0-0.6,0.1-1.1,0.4-1.6 c0.3-0.5,0.7-0.9,1.2-1.2c0.5-0.3,1.2-0.5,1.9-0.5v-0.8h2v0.8c0.7,0,1.3,0.2,1.9,0.5c0.5,0.3,1,0.7,1.2,1.2c0.3,0.5,0.4,1,0.4,1.6 c0,0.6-0.1,1.1-0.4,1.6c-0.3,0.5-0.7,0.9-1.2,1.2c-0.5,0.3-1.2,0.5-1.9,0.5v1h-2V20.3z M115.4,15.8c-0.4,0-0.8,0.2-1.1,0.4 c-0.3,0.3-0.4,0.6-0.4,1s0.1,0.7,0.4,1c0.3,0.3,0.6,0.4,1.1,0.4V15.8z M117.4,18.5c0.4,0,0.8-0.2,1.1-0.4c0.3-0.3,0.4-0.6,0.4-1 s-0.1-0.7-0.4-1c-0.3-0.3-0.6-0.4-1.1-0.4V18.5z"></path><path class="st0" d="M126.2,13.4h2.3l-2.6,5.8c-0.6,1.4-1.6,2.1-2.9,2.1c-0.2,0-0.4,0-0.6,0c-0.2,0-0.3-0.1-0.4-0.1v-1.9 c0.2,0.1,0.4,0.1,0.7,0.1c0.3,0,0.6-0.1,0.8-0.2c0.2-0.1,0.3-0.3,0.4-0.5l-2.8-5.3h2.4l1.5,3.1h0L126.2,13.4z"></path><path class="st0" d="M131.4,21.1h-2.1v-7.7h2.1v2.8h2.8v-2.8h2.1v7.7h-2.1v-2.9h-2.8V21.1z"></path><path class="st0" d="M140.1,21.1H138v-7.7h2.1v3l2.5-3h2.4l-2.8,3.2l3,4.5h-2.4l-1.9-2.9l-0.8,0.9V21.1z"></path><path class="st0" d="M153.8,22.8h-2.1v-1.7h-5.7v-7.7h2.1v5.8h2.6v-5.8h2.1v5.8h1V22.8z"></path><path class="st0" d="M156.7,21.1h-1.8v-7.7h2.1v4.3h0l3.3-4.3h1.8v7.7H160v-4.3h0L156.7,21.1z"></path><path class="st0" d="M165.4,20.8c-0.7-0.4-1.2-0.9-1.5-1.5c-0.4-0.6-0.6-1.3-0.6-2.1c0-0.8,0.2-1.4,0.6-2.1 c0.4-0.6,0.9-1.1,1.5-1.5c0.7-0.4,1.4-0.5,2.2-0.5c0.8,0,1.5,0.2,2.2,0.5c0.7,0.4,1.2,0.9,1.5,1.5c0.4,0.6,0.6,1.3,0.6,2.1 c0,0.8-0.2,1.4-0.6,2.1c-0.4,0.6-0.9,1.1-1.5,1.5c-0.7,0.4-1.4,0.5-2.2,0.5C166.8,21.3,166.1,21.2,165.4,20.8z M168.7,19.1 c0.3-0.2,0.6-0.5,0.8-0.8c0.2-0.3,0.3-0.7,0.3-1.1c0-0.4-0.1-0.8-0.3-1.1c-0.2-0.3-0.5-0.6-0.8-0.8c-0.3-0.2-0.7-0.3-1.1-0.3 s-0.8,0.1-1.1,0.3c-0.3,0.2-0.6,0.5-0.8,0.8c-0.2,0.3-0.3,0.7-0.3,1.1c0,0.4,0.1,0.8,0.3,1.1c0.2,0.3,0.5,0.6,0.8,0.8 c0.3,0.2,0.7,0.3,1.1,0.3S168.4,19.3,168.7,19.1z"></path><path class="st0" d="M175.2,21.1h-2.1v-7.7h2.1v2.8h2.8v-2.8h2.1v7.7h-2.1v-2.9h-2.8V21.1z"></path><path class="st0" d="M183.2,21.1H181l2.9-7.7h2.4l2.9,7.7h-2.2l-0.5-1.5h-2.7L183.2,21.1z M185.1,15.4l-0.8,2.5h1.6L185.1,15.4 L185.1,15.4z"></path><path class="st0" d="M191.1,13.4h5.9v7.7h-2.1v-5.8h-1.8l0,0.4c0,1.4-0.2,2.5-0.4,3.3s-0.5,1.4-0.9,1.7c-0.4,0.3-0.9,0.5-1.5,0.5 c-0.2,0-0.4,0-0.5-0.1c-0.2,0-0.3-0.1-0.4-0.2v-1.9c0.2,0.1,0.4,0.1,0.5,0.1c0.2,0,0.4-0.1,0.6-0.3c0.2-0.2,0.3-0.5,0.4-1 c0.1-0.5,0.2-1.2,0.2-2.2L191.1,13.4z"></path><path class="st0" d="M198.6,21.1v-7.7h2.1v2.3h1.4c0.6,0,1.1,0.1,1.5,0.4c0.4,0.2,0.8,0.6,1,1c0.2,0.4,0.4,0.9,0.4,1.4 c0,0.5-0.1,1-0.4,1.4c-0.2,0.4-0.6,0.7-1,1c-0.4,0.2-0.9,0.4-1.5,0.4H198.6z M202,19.2c0.3,0,0.5-0.1,0.6-0.2 c0.2-0.2,0.2-0.4,0.2-0.6s-0.1-0.4-0.2-0.6c-0.2-0.2-0.4-0.2-0.6-0.2h-1.3v1.7H202z"></path><path class="st0" d="M208.2,21.1h-2.1v-7.7h2.1v2.8h2.8v-2.8h2.1v7.7H211v-2.9h-2.8V21.1z"></path><path class="st0" d="M214.8,21.1v-7.7h2.1v2.3h1.3c0.6,0,1.1,0.1,1.5,0.4c0.4,0.2,0.8,0.6,1,1c0.2,0.4,0.4,0.9,0.4,1.4 c0,0.5-0.1,1-0.4,1.4c-0.2,0.4-0.6,0.7-1,1c-0.4,0.2-0.9,0.4-1.5,0.4H214.8z M218,19.2c0.3,0,0.5-0.1,0.6-0.2 c0.2-0.2,0.2-0.4,0.2-0.6s-0.1-0.4-0.2-0.6c-0.2-0.2-0.4-0.2-0.6-0.2h-1.2v1.7H218z M223.9,21.1h-2.1v-7.7h2.1V21.1z"></path><path class="st0" d="M227.4,21.1h-1.8v-7.7h2.1v4.3h0l3.3-4.3h1.8v7.7h-2.1v-4.3h0L227.4,21.1z M227.7,12 c-0.4-0.3-0.5-0.8-0.5-1.3h1.4c0,0.2,0.1,0.4,0.2,0.5c0.1,0.1,0.3,0.2,0.5,0.2s0.3-0.1,0.5-0.2c0.1-0.1,0.2-0.3,0.2-0.5h1.4 c0,0.5-0.2,1-0.5,1.3c-0.4,0.3-0.8,0.5-1.5,0.5C228.6,12.6,228.1,12.4,227.7,12z"></path><path class="st0" d="M70.9,34.2h-2.1v-7.7h1.9l2.4,3h0l2.4-3h1.9v7.7h-2.1v-4.5h0l-2.1,2.7l-2.1-2.7h0V34.2z"></path><path class="st0" d="M80.8,34.2H79v-7.7h2.1v4.3h0l3.3-4.3h1.8v7.7h-2.1V30h0L80.8,34.2z"></path><path class="st0" d="M90,34.2h-2.1v-7.7h5.4v2H90V34.2z"></path><path class="st0" d="M94.2,34.2v-7.7h3.5c0.6,0,1.1,0.1,1.5,0.4c0.4,0.2,0.8,0.6,1,1c0.2,0.4,0.4,0.9,0.4,1.4c0,0.5-0.1,1-0.4,1.4 c-0.2,0.4-0.6,0.7-1,1c-0.4,0.2-0.9,0.4-1.5,0.4h-1.4v2.3H94.2z M97.6,30c0.2,0,0.5-0.1,0.6-0.2c0.2-0.2,0.3-0.4,0.3-0.6 c0-0.2-0.1-0.4-0.3-0.6c-0.2-0.2-0.4-0.2-0.6-0.2h-1.3V30H97.6z"></path><path class="st0" d="M102.5,34.2h-2.2l2.9-7.7h2.4l2.9,7.7h-2.2l-0.5-1.5h-2.7L102.5,34.2z M104.4,28.5l-0.8,2.5h1.6L104.4,28.5 L104.4,28.5z"></path><path class="st0" d="M117.1,35.9H115v-1.7h-5.7v-7.7h2.1v5.8h2.6v-5.8h2.1v5.8h1V35.9z"></path><path class="st0" d="M120,34.2h-1.8v-7.7h2.1v4.3h0l3.3-4.3h1.8v7.7h-2.1V30h0L120,34.2z"></path><path class="st0" d="M128.7,33.9c-0.7-0.4-1.2-0.9-1.5-1.5c-0.4-0.6-0.6-1.3-0.6-2.1c0-0.8,0.2-1.4,0.6-2.1 c0.4-0.6,0.9-1.1,1.5-1.5c0.7-0.4,1.4-0.5,2.2-0.5c0.8,0,1.5,0.2,2.2,0.5c0.7,0.4,1.2,0.9,1.5,1.5c0.4,0.6,0.6,1.3,0.6,2.1 c0,0.8-0.2,1.4-0.6,2.1c-0.4,0.6-0.9,1.1-1.5,1.5c-0.7,0.4-1.4,0.5-2.2,0.5C130.1,34.5,129.4,34.3,128.7,33.9z M132,32.2 c0.3-0.2,0.6-0.5,0.8-0.8c0.2-0.3,0.3-0.7,0.3-1.1c0-0.4-0.1-0.8-0.3-1.1c-0.2-0.3-0.5-0.6-0.8-0.8c-0.3-0.2-0.7-0.3-1.1-0.3 s-0.8,0.1-1.1,0.3c-0.3,0.2-0.6,0.5-0.8,0.8c-0.2,0.3-0.3,0.7-0.3,1.1c0,0.4,0.1,0.8,0.3,1.1c0.2,0.3,0.5,0.6,0.8,0.8 c0.3,0.2,0.7,0.3,1.1,0.3S131.7,32.4,132,32.2z"></path><path class="st0" d="M138.5,34.2h-2.1v-7.7h2.1v2.8h2.8v-2.8h2.1v7.7h-2.1v-2.9h-2.8V34.2z"></path><path class="st0" d="M147.2,34.2h-2.1v-7.7h2.1v2.8h2.8v-2.8h2.1v7.7H150v-2.9h-2.8V34.2z"></path><path class="st0" d="M153.8,34.2v-7.7h2.1v2.3h1.3c0.6,0,1.1,0.1,1.5,0.4c0.4,0.2,0.8,0.6,1,1c0.2,0.4,0.4,0.9,0.4,1.4 c0,0.5-0.1,1-0.4,1.4c-0.2,0.4-0.6,0.7-1,1c-0.4,0.2-0.9,0.4-1.5,0.4H153.8z M157.1,32.4c0.3,0,0.5-0.1,0.6-0.2 c0.2-0.2,0.2-0.4,0.2-0.6s-0.1-0.4-0.2-0.6c-0.2-0.2-0.4-0.2-0.6-0.2h-1.2v1.7H157.1z M162.9,34.2h-2.1v-7.7h2.1V34.2z"></path><path class="st0" d="M166.4,34.2h-1.8v-7.7h2.1v4.3h0l3.3-4.3h1.8v7.7h-2.1V30h0L166.4,34.2z M166.7,25.2 c-0.4-0.3-0.5-0.8-0.5-1.3h1.4c0,0.2,0.1,0.4,0.2,0.5c0.1,0.1,0.3,0.2,0.5,0.2s0.3-0.1,0.5-0.2c0.1-0.1,0.2-0.3,0.2-0.5h1.4 c0,0.5-0.2,1-0.5,1.3c-0.4,0.3-0.8,0.5-1.5,0.5C167.6,25.7,167.1,25.5,166.7,25.2z"></path><path class="st0" d="M183.7,35.9h-2.1v-1.7h-5.7v-7.7h2.1v5.8h2.6v-5.8h2.1v5.8h1V35.9z"></path><path class="st0" d="M190.7,34.2h-6v-7.7h5.9v1.9h-3.8v1.1h2.9v1.8h-2.9v1.1h3.9V34.2z"></path><path class="st0" d="M194.2,34.2h-2.1v-7.7h2.1v2.8h2.8v-2.8h2.1v7.7H197v-2.9h-2.8V34.2z"></path><path class="st0" d="M204.3,34.2h-2.1v-5.8h-2.2v-2h6.4v2h-2.2V34.2z"></path><path class="st0" d="M207.5,34.2v-7.7h3.5c0.6,0,1.1,0.1,1.5,0.4c0.4,0.2,0.8,0.6,1,1c0.2,0.4,0.4,0.9,0.4,1.4 c0,0.5-0.1,1-0.4,1.4c-0.2,0.4-0.6,0.7-1,1c-0.4,0.2-0.9,0.4-1.5,0.4h-1.4v2.3H207.5z M210.9,30c0.2,0,0.5-0.1,0.6-0.2 c0.2-0.2,0.3-0.4,0.3-0.6c0-0.2-0.1-0.4-0.3-0.6c-0.2-0.2-0.4-0.2-0.6-0.2h-1.3V30H210.9z"></path><path class="st0" d="M70.9,47.4h-2.1v-7.7h5.4v2h-3.3V47.4z"></path><path class="st0" d="M76.4,47.1c-0.7-0.4-1.2-0.9-1.5-1.5c-0.4-0.6-0.6-1.3-0.6-2.1c0-0.8,0.2-1.4,0.6-2.1 c0.4-0.6,0.9-1.1,1.5-1.5c0.7-0.4,1.4-0.5,2.2-0.5s1.5,0.2,2.2,0.5c0.7,0.4,1.2,0.9,1.5,1.5c0.4,0.6,0.6,1.3,0.6,2.1 c0,0.8-0.2,1.4-0.6,2.1c-0.4,0.6-0.9,1.1-1.5,1.5c-0.7,0.4-1.4,0.5-2.2,0.5S77.1,47.4,76.4,47.1z M79.7,45.4 c0.3-0.2,0.6-0.5,0.8-0.8c0.2-0.3,0.3-0.7,0.3-1.1c0-0.4-0.1-0.8-0.3-1.1c-0.2-0.3-0.5-0.6-0.8-0.8s-0.7-0.3-1.1-0.3 c-0.4,0-0.8,0.1-1.1,0.3s-0.6,0.5-0.8,0.8c-0.2,0.3-0.3,0.7-0.3,1.1c0,0.4,0.1,0.8,0.3,1.1c0.2,0.3,0.5,0.6,0.8,0.8 c0.3,0.2,0.7,0.3,1.1,0.3C79,45.7,79.4,45.6,79.7,45.4z"></path><path class="st0" d="M84.2,47.4v-7.7h3.5c0.6,0,1.1,0.1,1.5,0.4c0.4,0.2,0.8,0.6,1,1c0.2,0.4,0.4,0.9,0.4,1.4c0,0.5-0.1,1-0.4,1.4 c-0.2,0.4-0.6,0.7-1,1c-0.4,0.2-0.9,0.4-1.5,0.4h-1.4v2.3H84.2z M87.5,43.2c0.2,0,0.5-0.1,0.6-0.2c0.2-0.2,0.3-0.4,0.3-0.6 c0-0.2-0.1-0.4-0.3-0.6c-0.2-0.2-0.4-0.2-0.6-0.2h-1.3v1.7H87.5z"></path><path class="st0" d="M93.2,47.1c-0.7-0.4-1.2-0.9-1.5-1.5c-0.4-0.6-0.6-1.3-0.6-2.1c0-0.8,0.2-1.4,0.6-2.1 c0.4-0.6,0.9-1.1,1.5-1.5c0.7-0.4,1.4-0.5,2.2-0.5s1.5,0.2,2.2,0.5c0.7,0.4,1.2,0.9,1.5,1.5c0.4,0.6,0.6,1.3,0.6,2.1 c0,0.8-0.2,1.4-0.6,2.1c-0.4,0.6-0.9,1.1-1.5,1.5c-0.7,0.4-1.4,0.5-2.2,0.5S93.9,47.4,93.2,47.1z M96.5,45.4 c0.3-0.2,0.6-0.5,0.8-0.8c0.2-0.3,0.3-0.7,0.3-1.1c0-0.4-0.1-0.8-0.3-1.1c-0.2-0.3-0.5-0.6-0.8-0.8s-0.7-0.3-1.1-0.3 s-0.8,0.1-1.1,0.3c-0.3,0.2-0.6,0.5-0.8,0.8c-0.2,0.3-0.3,0.7-0.3,1.1c0,0.4,0.1,0.8,0.3,1.1c0.2,0.3,0.5,0.6,0.8,0.8 c0.3,0.2,0.7,0.3,1.1,0.3S96.2,45.6,96.5,45.4z"></path><path class="st0" d="M107.3,45.4h1V49h-2.1v-1.7h-4.1V49H100v-3.6h0.4c0.3-0.2,0.5-0.6,0.7-1.2s0.3-1.3,0.4-2.1l0-2.4h5.7V45.4z  M105.2,45.4v-3.8h-1.6l0,0.4c0,0.8-0.1,1.5-0.3,2.1c-0.2,0.6-0.4,1-0.7,1.2H105.2z"></path><path class="st0" d="M110.7,47.4h-2.2l2.9-7.7h2.4l2.9,7.7h-2.2l-0.5-1.5h-2.7L110.7,47.4z M112.5,41.6l-0.8,2.5h1.6L112.5,41.6 L112.5,41.6z"></path><path class="st0" d="M121.7,47.4h-2.1v-7.7h1.9l2.4,3h0l2.4-3h1.9v7.7H126v-4.5h0l-2.1,2.7l-2.1-2.7h0V47.4z"></path><path class="st0" d="M131.4,47.1c-0.7-0.4-1.2-0.9-1.5-1.5c-0.4-0.6-0.6-1.3-0.6-2.1c0-0.8,0.2-1.4,0.6-2.1 c0.4-0.6,0.9-1.1,1.5-1.5c0.7-0.4,1.4-0.5,2.2-0.5c0.8,0,1.5,0.2,2.2,0.5c0.7,0.4,1.2,0.9,1.5,1.5c0.4,0.6,0.6,1.3,0.6,2.1 c0,0.8-0.2,1.4-0.6,2.1c-0.4,0.6-0.9,1.1-1.5,1.5c-0.7,0.4-1.4,0.5-2.2,0.5C132.8,47.6,132.1,47.4,131.4,47.1z M134.7,45.4 c0.3-0.2,0.6-0.5,0.8-0.8c0.2-0.3,0.3-0.7,0.3-1.1c0-0.4-0.1-0.8-0.3-1.1c-0.2-0.3-0.5-0.6-0.8-0.8c-0.3-0.2-0.7-0.3-1.1-0.3 c-0.4,0-0.8,0.1-1.1,0.3c-0.3,0.2-0.6,0.5-0.8,0.8c-0.2,0.3-0.3,0.7-0.3,1.1c0,0.4,0.1,0.8,0.3,1.1c0.2,0.3,0.5,0.6,0.8,0.8 c0.3,0.2,0.7,0.3,1.1,0.3C134,45.7,134.4,45.6,134.7,45.4z"></path><path class="st0" d="M140.8,47.1c-0.7-0.4-1.2-0.9-1.5-1.5c-0.4-0.6-0.6-1.3-0.6-2.1c0-0.8,0.2-1.4,0.6-2.1 c0.4-0.6,0.9-1.1,1.5-1.5c0.7-0.4,1.4-0.5,2.2-0.5c0.8,0,1.5,0.1,2.1,0.4c0.6,0.3,1.1,0.6,1.4,1.1l-1.4,1.3 c-0.3-0.3-0.6-0.5-0.9-0.6c-0.3-0.2-0.7-0.2-1.2-0.2c-0.4,0-0.8,0.1-1.1,0.3c-0.3,0.2-0.6,0.4-0.8,0.8c-0.2,0.3-0.3,0.7-0.3,1.1 c0,0.4,0.1,0.8,0.3,1.1c0.2,0.3,0.4,0.6,0.8,0.8c0.3,0.2,0.7,0.3,1.1,0.3c0.5,0,0.9-0.1,1.2-0.2c0.3-0.2,0.7-0.4,0.9-0.7l1.4,1.3 c-0.4,0.4-0.9,0.8-1.5,1.1c-0.6,0.3-1.3,0.4-2.1,0.4C142.2,47.6,141.5,47.4,140.8,47.1z"></path><path class="st0" d="M149.6,47.4h-2.1v-7.7h2.1v3l2.5-3h2.4l-2.8,3.2l3,4.5h-2.4l-1.9-2.9l-0.8,0.9V47.4z"></path><path class="st0" d="M155.6,47.4v-7.7h3.5c0.6,0,1.1,0.1,1.5,0.3c0.4,0.2,0.7,0.4,0.9,0.7c0.2,0.3,0.3,0.6,0.3,1 c0,0.4-0.1,0.7-0.3,1c-0.2,0.3-0.5,0.5-0.8,0.6c0.2,0.1,0.5,0.2,0.7,0.4c0.2,0.2,0.4,0.4,0.6,0.7c0.2,0.3,0.2,0.6,0.2,0.9 c0,0.4-0.1,0.8-0.3,1.1c-0.2,0.3-0.5,0.6-1,0.8c-0.4,0.2-0.9,0.3-1.5,0.3H155.6z M158.9,42.6c0.2,0,0.4-0.1,0.5-0.2 c0.1-0.1,0.2-0.3,0.2-0.5s-0.1-0.4-0.2-0.5s-0.3-0.2-0.5-0.2h-1.2v1.3H158.9z M159.2,45.7c0.2,0,0.4-0.1,0.6-0.2 c0.2-0.1,0.2-0.3,0.2-0.6c0-0.2-0.1-0.4-0.2-0.6c-0.2-0.1-0.4-0.2-0.6-0.2h-1.5v1.5H159.2z"></path><path class="st0" d="M163.3,47.4v-7.7h2.1V42h1.3c0.6,0,1.1,0.1,1.5,0.4c0.4,0.2,0.8,0.6,1,1c0.2,0.4,0.4,0.9,0.4,1.4 c0,0.5-0.1,1-0.4,1.4c-0.2,0.4-0.6,0.7-1,1c-0.4,0.2-0.9,0.4-1.5,0.4H163.3z M166.6,45.5c0.3,0,0.5-0.1,0.6-0.2 c0.2-0.2,0.2-0.4,0.2-0.6s-0.1-0.4-0.2-0.6c-0.2-0.2-0.4-0.2-0.6-0.2h-1.2v1.7H166.6z M172.4,47.4h-2.1v-7.7h2.1V47.4z"></path></g><g><path class="st0" d="M44.8,49.7c0,2.9-2.6,5.3-5.9,5.3h-4.8c-3.3,0-6.5,0.9-9.3,2.7c0,0-0.1,0.1-0.1,0.1c0,0-0.1-0.1-0.1-0.1 c-2.8-1.8-6-2.7-9.3-2.7h-4.8c-3.2,0-5.9-2.4-5.9-5.3V9h31.3V4.7H0.2v45c0,5.3,4.6,9.6,10.2,9.6h4.8c6.1,0,9.5,4.1,9.5,4.1 s3.4-4.1,9.5-4.1h4.8c5.6,0,10.2-4.3,10.2-9.6V18h-4.3V49.7z"></path><path class="st0" d="M37.9,4.7L37.9,4.7l0,4.3h3.8L24.6,22.4l-11.1-8.7L6.7,19l0,25.7l18,11.7l18.1-11.7V23.4h0l0,0l-4.9-3.2 l-1.8,1.4l2.7,1.7l-14.1,9.1l-14-9.2l4.4-3l9.5,7.5l20.1-15.8v3.7h4.3V4.7H37.9z M40.6,43.5l-5.9,3.8v-8.2l0,0l0-1v-1.6l0,0l0,0 l-8.9,5.8v-7.9l14.8-9.6V43.5z M23.5,42.3L23.5,42.3l-8.9-5.8l0,0.2l0,0v10.6l-5.7-3.7V24.8l14.7,9.6V42.3z M16.8,48.7v-8.2 l7.8,5.1l0,0l0,0l1.1-0.7h0l0,0l6.7-4.4v8.2l-7.8,5v0L16.8,48.7z"></path></g></g></svg>